<?xml version="1.0" encoding="UTF-8" standalone="no"?><!DOCTYPE svg PUBLIC "-//W3C//DTD SVG 1.1//EN" "http://www.w3.org/Graphics/SVG/1.1/DTD/svg11.dtd"><svg width="100%" height="100%" viewBox="0 0 2917 2917" version="1.1" xmlns="http://www.w3.org/2000/svg" xmlns:xlink="http://www.w3.org/1999/xlink" xml:space="preserve" xmlns:serif="http://www.serif.com/" style="fill-rule:evenodd;clip-rule:evenodd;stroke-linejoin:round;stroke-miterlimit:2;"><g><path d="M2440.17,1636.87l310.052,-307.353c94.794,-94.914 148.028,-223.576 148.028,-357.735c-0,-134.15 -53.234,-262.813 -148.028,-357.734l-310.052,-309.579c-38.388,-38.513 -92.158,-57.597 -146.236,-51.916c-54.113,5.682 -102.732,35.501 -132.302,81.174c-22.254,35.469 -31.671,77.528 -26.68,119.148c4.991,41.59 24.106,80.228 54.145,109.418l306.444,306.878l-0.031,0c27.37,27.151 42.782,64.064 42.782,102.612c-0,38.545 -15.412,75.488 -42.782,102.612l-302.837,300.137c-31.514,30.101 -51.571,70.246 -56.656,113.531c-5.085,43.285 5.085,87.007 28.783,123.608c30.289,43.976 78.596,72.225 131.764,77.09c53.203,4.865 105.81,-14.156 143.6,-51.884l0.006,-0.007Z" style="fill:#7b00ff;fill-rule:nonzero;"/><path d="M476.489,2626.82c38.387,38.513 92.157,57.597 146.235,51.916c54.114,-5.682 102.732,-35.501 132.303,-81.174c22.253,-35.5 31.67,-77.56 26.679,-119.148c-4.99,-41.59 -24.106,-80.228 -54.144,-109.45l-304.179,-306.879c-27.37,-27.119 -42.751,-64.063 -42.751,-102.579c0,-38.545 15.381,-75.488 42.751,-102.612l300.603,-302.395c31.514,-30.101 51.571,-70.247 56.656,-113.531c5.085,-43.285 -5.085,-87.007 -28.783,-123.609c-30.383,-43.911 -78.69,-72.067 -131.893,-76.838c-53.171,-4.802 -105.745,14.313 -143.471,52.105l-310.053,309.578c-94.793,94.914 -148.027,223.576 -148.027,357.735c-0,134.158 53.234,262.813 148.027,357.735l310.047,309.146Z" style="fill:#7b00ff;fill-rule:nonzero;"/><path d="M2129.28,2702.84c42.061,-22.756 73.323,-61.301 86.911,-107.159c13.591,-45.827 8.381,-95.203 -14.47,-137.196l-1169.95,-2159.91c-20.465,-45.858 -59.167,-81.109 -106.75,-97.18c-47.583,-16.07 -99.719,-11.519 -143.817,12.524c-44.1,24.075 -76.148,65.476 -88.357,114.191c-12.241,48.714 -3.546,100.346 23.95,142.379l1169.95,2159.91c22.757,42.029 61.301,73.323 107.128,86.911c45.858,13.591 95.203,8.381 137.196,-14.47l-1.79,0.001Z" style="fill:#7b00ff;fill-rule:nonzero;"/></g></svg>