<?xml version="1.0" encoding="UTF-8" standalone="no"?><!DOCTYPE svg PUBLIC "-//W3C//DTD SVG 1.1//EN" "http://www.w3.org/Graphics/SVG/1.1/DTD/svg11.dtd"><svg width="100%" height="100%" viewBox="0 0 16000 9000" version="1.1" xmlns="http://www.w3.org/2000/svg" xmlns:xlink="http://www.w3.org/1999/xlink" xml:space="preserve" xmlns:serif="http://www.serif.com/" style="fill-rule:evenodd;clip-rule:evenodd;stroke-linecap:round;stroke-linejoin:round;stroke-miterlimit:1.5;"><rect id="Artboard1" x="0" y="0" width="16000" height="9000" style="fill:none;"/><g id="Artboard11" serif:id="Artboard1"><g><path d="M5143.88,720.212l-45.021,744.125l-627.246,-421.933l672.267,-322.192Z" style="fill:none;stroke:#000;stroke-width:62.5px;"/><path d="M14209.9,6059.05l-45.021,744.125l-627.246,-421.934l672.267,-322.191Z" style="fill:none;stroke:#000;stroke-width:62.5px;"/><path d="M4141.87,3708.17l491.465,560.545l-742.618,141.36l251.153,-701.905Z" style="fill:none;stroke:#000;stroke-width:62.5px;"/><path d="M8056.27,7241.56l568.887,276.292l-533.975,355.175l-34.912,-631.467Z" style="fill:none;stroke:#000;stroke-width:62.5px;"/><path d="M10103.1,2252.23l-402.728,487.626l-219.145,-602.706l621.873,115.08Z" style="fill:none;stroke:#000;stroke-width:62.5px;"/><path d="M13680.4,4335.45l381.096,-459.979l206.103,569.585l-587.199,-109.606Z" style="fill:none;stroke:#000;stroke-width:62.5px;"/><path d="M13768.4,1922.23l588.683,-101.327l-214.102,566.627l-374.581,-465.3Z" style="fill:none;stroke:#000;stroke-width:62.5px;"/><path d="M15371.3,2685.58l-504.136,189.869l180.974,480.519l504.136,-189.869l-180.974,-480.519Z" style="fill:none;stroke:#000;stroke-width:62.5px;"/><path d="M6867.87,8075.87l-472.933,-164.595l-164.595,472.932l472.933,164.595l164.595,-472.932Z" style="fill:none;stroke:#000;stroke-width:62.5px;"/><path d="M13200.3,4588.89l-472.932,-164.595l-164.595,472.932l472.932,164.596l164.595,-472.933Z" style="fill:none;stroke:#000;stroke-width:62.5px;"/><path d="M9701.18,891.317l-472.933,-164.595l-164.595,472.933l472.933,164.595l164.595,-472.933Z" style="fill:none;stroke:#000;stroke-width:62.5px;"/><path d="M6777.97,1053.36l115.205,487.323l487.324,-115.206l-115.206,-487.323l-487.323,115.206Z" style="fill:none;stroke:#000;stroke-width:62.5px;"/><path d="M11910.1,7583.28l115.206,487.324l487.323,-115.206l-115.206,-487.324l-487.323,115.206Z" style="fill:none;stroke:#000;stroke-width:62.5px;"/><path d="M14475.7,7762.7l115.206,487.324l487.324,-115.206l-115.206,-487.324l-487.324,115.206Z" style="fill:none;stroke:#000;stroke-width:62.5px;"/><path d="M6099.54,2959.93l-59.111,497.255l497.255,59.111l59.111,-497.255l-497.255,-59.111Z" style="fill:none;stroke:#000;stroke-width:62.5px;"/><path d="M8152.87,4051.43l-258.013,429.169l429.168,258.014l258.014,-429.169l-429.169,-258.014Z" style="fill:none;stroke:#000;stroke-width:62.5px;"/><circle cx="11111.5" cy="4033.01" r="220.174" style="fill:none;stroke:#000;stroke-width:62.5px;"/><circle cx="14962.1" cy="5277.1" r="220.174" style="fill:none;stroke:#000;stroke-width:62.5px;"/><circle cx="10947.8" cy="1942.53" r="220.174" style="fill:none;stroke:#000;stroke-width:62.5px;"/><circle cx="7379.96" cy="5994.58" r="220.174" style="fill:none;stroke:#000;stroke-width:62.5px;"/><circle cx="9727.36" cy="6076.95" r="323.469" style="fill:none;stroke:#000;stroke-width:62.5px;"/><circle cx="10329.6" cy="8274.2" r="323.469" style="fill:none;stroke:#000;stroke-width:62.5px;"/><circle cx="14848.8" cy="871.249" r="323.469" style="fill:none;stroke:#000;stroke-width:62.5px;"/><path d="M11134.8,5605.28l618.213,-133.352l-201.293,608.902l-416.92,-475.55Z" style="fill:none;stroke:#000;stroke-width:62.5px;"/><path d="M929.59,6875.91l-258.014,429.168l429.169,258.014l258.014,-429.168l-429.169,-258.014Z" style="fill:none;stroke:#000;stroke-width:62.5px;"/><circle cx="3657.81" cy="5818.17" r="220.174" style="fill:none;stroke:#000;stroke-width:62.5px;"/><circle cx="2541.79" cy="8076.54" r="323.469" style="fill:none;stroke:#000;stroke-width:62.5px;"/><path d="M3627.99,7408.3l618.212,-133.352l-201.293,608.901l-416.919,-475.549Z" style="fill:none;stroke:#000;stroke-width:62.5px;"/><path d="M1737.84,5621.16l568.887,276.291l-533.976,355.176l-34.911,-631.467Z" style="fill:none;stroke:#000;stroke-width:62.5px;"/><path d="M1722.53,692.888l-472.933,-164.595l-164.595,472.932l472.933,164.595l164.595,-472.932Z" style="fill:none;stroke:#000;stroke-width:62.5px;"/><path d="M1734.38,2913.02l-258.014,429.168l429.169,258.014l258.014,-429.168l-429.169,-258.014Z" style="fill:none;stroke:#000;stroke-width:62.5px;"/><circle cx="1053.46" cy="2165.34" r="220.174" style="fill:none;stroke:#000;stroke-width:62.5px;"/><circle cx="990.456" cy="4676.1" r="323.469" style="fill:none;stroke:#000;stroke-width:62.5px;"/><circle cx="5632.81" cy="5531.2" r="323.469" style="fill:none;stroke:#000;stroke-width:62.5px;"/><path d="M3583.57,1891.13l618.213,-133.352l-201.293,608.901l-416.92,-475.549Z" style="fill:none;stroke:#000;stroke-width:62.5px;"/><path d="M7695.86,2539.54l618.212,-133.352l-201.293,608.901l-416.919,-475.549Z" style="fill:none;stroke:#000;stroke-width:62.5px;"/><path d="M11775.1,604.376l513.566,369.079l-586.632,259.118l73.066,-628.197Z" style="fill:none;stroke:#000;stroke-width:62.5px;"/><path d="M12899.8,2523.92l350.257,526.583l-640.333,35.4l290.076,-561.983Z" style="fill:none;stroke:#000;stroke-width:62.5px;"/></g></g></svg>